# xmcd CD database file
#
# Track frame offsets:
#	150
#	14641
#	31050
#	46096
#	61700
#	77858
#	97099
#	114826
#	131665
#
# Disc length: 1972 seconds
#
# Revision: 2
# Processed by: cddbd v1.5.2PL0 Copyright (c) Steve Scherf et al.
# Submitted via: CDex 1.70beta2
#
DISCID=6907b209
DTITLE=Beyonce - SASHA FIERCE
DYEAR=2008
DGENRE=Pop
TTITLE0=Single Ladies (Put A Ring On It)
TTITLE1=Radio
TTITLE2=Diva
TTITLE3=Sweet Dreams
TTITLE4=Video Phone
TTITLE5=Hello
TTITLE6=Ego
TTITLE7=Scared Of Lonely
TTITLE8=Why Don't You Love Me [Bonus Track]
EXTD=YEAR: 2008
EXTT0=
EXTT1=
EXTT2=
EXTT3=
EXTT4=
EXTT5=
EXTT6=
EXTT7=
EXTT8=
PLAYORDER=
